Coordinates
version=1
nRows=8
nColumns=46
inDegrees=yes

Units are S.I. units (second, meters, Newtons, ...)
Angles are in degrees.

endheader
time	pelvis_tilt	pelvis_list	pelvis_rotation	pelvis_tx	pelvis_ty	pelvis_tz	bb_angle	bb_tx	bb_ty	bb_tz	hip_flexion_r	hip_adduction_r	hip_rotation_r	knee_angle_r	knee_angle_r_beta	ankle_angle_r	subtalar_angle_r	mtp_angle_r	crank_angle_r	hip_flexion_l	hip_adduction_l	hip_rotation_l	knee_angle_l	knee_angle_l_beta	ankle_angle_l	subtalar_angle_l	mtp_angle_l	crank_angle_l	lumbar_extension	lumbar_bending	lumbar_rotation	arm_flex_r	arm_add_r	arm_rot_r	elbow_flex_r	pro_sup_r	wrist_flex_r	wrist_dev_r	arm_flex_l	arm_add_l	arm_rot_l	elbow_flex_l	pro_sup_l	wrist_flex_l	wrist_dev_l
      5.00500000	    -33.49868063	     -5.77192789	    -18.46398772	      0.44229031	      1.21337772	     -0.25527067	      0.00000000	      0.50000000	      0.00000000	      0.25000000	     72.01415909	     12.21920023	     -1.64280055	     78.14576953	      1.36390097	     14.83865223	     -3.75691106	      0.00000000	      0.00000000	     35.58547443	    -21.08007001	     -7.61219018	     40.52941834	      0.70737179	    -28.75030463	      1.38197286	      0.00000000	      0.00000000	    -64.30391323	     -6.57656127	     15.58867057	     38.79579558	    -38.81164750	     20.79069505	    110.04483068	     50.85884725	      0.00000000	      0.00000000	     28.77416731	    -12.36337815	      5.12148513	     98.78003756	     52.06857003	      0.00000000	      0.00000000
      5.01000000	    -33.52708107	     -4.99896723	    -17.95076002	      0.44192399	      1.21394934	     -0.25429522	      0.00000000	      0.50000000	      0.00000000	      0.25000000	     71.30192769	     11.78322389	     -0.93767359	     75.98656520	      1.32621575	     14.29905119	     -4.39970531	      0.00000000	      0.00000000	     37.02459671	    -20.31190686	     -7.01236272	     42.73456978	      0.74585895	    -29.33976840	      0.79341129	      0.00000000	      0.00000000	    -64.19412809	     -6.91895874	     15.95441831	     36.53378435	    -39.03649438	     17.87117774	    111.29009004	     50.73022784	      0.00000000	      0.00000000	     30.12395889	    -12.27885638	      7.10656965	     97.58288549	     52.33555333	      0.00000000	      0.00000000
      5.01500000	    -33.29065891	     -4.25650421	    -17.52521037	      0.44179782	      1.21475021	     -0.25325362	      0.00000000	      0.50000000	      0.00000000	      0.25000000	     70.29596053	     11.39830046	     -0.11095771	     73.90478513	      1.28988183	     13.78556839	     -4.59247283	      0.00000000	      0.00000000	     38.02367819	    -19.56575817	     -6.65145210	     44.79655976	      0.78184746	    -29.78485884	      0.45593002	      0.00000000	      0.00000000	    -64.34787713	     -7.26155350	     15.19895318	     36.32829451	    -38.80510591	     17.63453865	    111.32324721	     50.71050136	      0.00000000	      0.00000000	     30.64371174	    -12.44335382	      7.25885898	     97.55142476	     52.35326480	      0.00000000	      0.00000000
      5.02000000	    -32.99387427	     -3.50385839	    -17.10037974	      0.44172762	      1.21564269	     -0.25219864	      0.00000000	      0.50000000	      0.00000000	      0.25000000	     69.17581303	     10.97513898	      0.79226404	     71.79298689	      1.25302400	     13.37400614	     -4.57613397	      0.00000000	      0.00000000	     38.84091907	    -18.86233468	     -6.53926689	     46.65247049	      0.81423921	    -30.24815027	      0.48207584	      0.00000000	      0.00000000	    -64.57735228	     -7.52927678	     14.48410230	     36.11003950	    -38.73090858	     17.53694970	    111.32925245	     50.70374790	      0.00000000	      0.00000000	     30.76847038	    -12.43877381	      7.41744158	     97.44530352	     52.35557411	      0.00000000	      0.00000000
      5.02500000	    -32.66762023	     -2.57015278	    -16.34273214	      0.44195056	      1.21636237	     -0.25210898	      0.00000000	      0.50000000	      0.00000000	      0.25000000	     68.14339945	     10.00307043	      1.52340868	     69.84519580	      1.21902863	     12.28610782	     -5.18378386	      0.00000000	      0.00000000	     39.67552218	    -17.57861632	     -6.12082413	     48.44418571	      0.84551054	    -30.72004671	     -0.48819724	      0.00000000	      0.00000000	    -64.80962881	     -7.62492692	     13.39499673	     35.64804327	    -37.66441076	     16.33601814	    111.39417518	     50.58330479	      0.00000000	      0.00000000	     31.56739718	    -13.37970549	      8.32936945	     97.11996976	     52.43574295	      0.00000000	      0.00000000
      5.03000000	    -32.43557859	     -1.88282181	    -15.69659038	      0.44165642	      1.21674266	     -0.25150148	      0.00000000	      0.50000000	      0.00000000	      0.25000000	     67.12855377	      9.37158108	      2.24475465	     67.81290855	      1.18355853	     11.35346376	     -5.56010315	      0.00000000	      0.00000000	     40.60652386	    -16.79337732	     -5.89294959	     50.40013891	      0.87964837	    -30.65016486	     -0.70154132	      0.00000000	      0.00000000	    -64.95928786	     -7.64371713	     12.69597534	     35.26696858	    -37.29106222	     15.77284255	    111.52797166	     50.54700189	      0.00000000	      0.00000000	     32.11837524	    -13.73882320	      8.77908348	     96.97273444	     52.47926122	      0.00000000	      0.00000000
      5.03500000	    -32.16159698	     -1.15426670	    -15.15194642	      0.44153778	      1.21710446	     -0.25074069	      0.00000000	      0.50000000	      0.00000000	      0.25000000	     66.01124058	      8.78009604	      3.09937921	     65.76159914	      1.14775643	     10.65986557	     -5.40745420	      0.00000000	      0.00000000	     41.35970113	    -16.06658047	     -5.93733866	     52.28621475	      0.91256660	    -30.46246227	     -0.85166053	      0.00000000	      0.00000000	    -65.11964440	     -7.77080184	     11.97292836	     34.98902255	    -37.22401162	     15.66742229	    111.54279415	     50.54197754	      0.00000000	      0.00000000	     32.34925990	    -13.75422180	      8.93722475	     96.90846783	     52.48714095	      0.00000000	      0.00000000
      5.04000000	    -32.06919359	     -0.63331469	    -14.27071271	      0.44104708	      1.21708679	     -0.25060965	      0.00000000	      0.50000000	      0.00000000	      0.25000000	     65.07629116	      7.96872228	      3.42289921	     63.61411401	      1.11027574	      8.91910105	     -6.49450004	      0.00000000	      0.00000000	     42.42692434	    -15.20914690	     -5.39751870	     54.30802669	      0.94785388	    -29.72862866	     -1.47164275	      0.00000000	      0.00000000	    -65.14165181	     -7.44942062	     11.29456997	     34.56664850	    -36.37593835	     14.74733592	    111.74906323	     50.47947685	      0.00000000	      0.00000000	     33.02787350	    -14.63972727	      9.72800240	     96.67722933	     52.55613560	      0.00000000	      0.00000000
